<?xml version="1.0" standalone="no"?>
<!DOCTYPE svg PUBLIC "-//W3C//DTD SVG 20010904//EN"
 "http://www.w3.org/TR/2001/REC-SVG-20010904/DTD/svg10.dtd">
<svg version="1.0" xmlns="http://www.w3.org/2000/svg"
 width="128.000000pt" height="128.000000pt" viewBox="0 0 128.000000 128.000000"
 preserveAspectRatio="xMidYMid meet">

<g transform="translate(0.000000,128.000000) scale(0.100000,-0.100000)"
fill="#001EFF" stroke="none">
<path d="M50 640 l0 -590 590 0 590 0 0 590 0 590 -590 0 -590 0 0 -590z m440
425 c0 -12 -23 -15 -127 -17 l-128 -3 -3 -132 c-2 -109 -5 -133 -17 -133 -13
0 -15 25 -15 150 l0 150 145 0 c121 0 145 -2 145 -15z m0 -140 c0 -11 -12 -15
-52 -15 l-52 0 64 -65 c57 -58 62 -65 40 -65 -17 1 -52 27 -110 80 l-84 80 97
0 c80 0 97 -3 97 -15z m261 -390 c35 -91 66 -165 69 -165 3 0 34 74 70 165
l64 165 63 0 63 0 0 -250 0 -250 -45 0 -45 0 -1 188 0 187 -73 -185 c-59 -148
-77 -186 -93 -188 -18 -3 -31 22 -96 185 l-76 188 -1 -187 0 -188 -45 0 -45 0
0 250 0 250 64 0 63 0 64 -165z"/>
</g>
</svg>
